HIERARCHY
ROOT root
{
	OFFSET	0	13.1	24.9
	CHANNELS 6  Xposition Yposition Zposition Xrotation Yrotation Zrotation
	JOINT spine_1
	{
		OFFSET	0	9.99999	0
		CHANNELS 3  Xrotation Yrotation Zrotation
		JOINT spine_2
		{
			OFFSET	0	112	-10
			CHANNELS 3  Xrotation Yrotation Zrotation
			JOINT spine_3
			{
				OFFSET	0	206.5	19.3
				CHANNELS 3  Xrotation Yrotation Zrotation
				JOINT spine_4
				{
					OFFSET	0	110.4	14.6
					CHANNELS 3  Xrotation Yrotation Zrotation
					JOINT neck_1
					{
						OFFSET	0	71.8	-50.3
						CHANNELS 3  Xrotation Yrotation Zrotation
						JOINT neck_2
						{
							OFFSET	0	86.2	-25.8
							CHANNELS 3  Xrotation Yrotation Zrotation
							JOINT head_ee
							{
								OFFSET	0	179.8	-8.7
								CHANNELS 3  Xrotation Yrotation Zrotation
								End Site
								{
									OFFSET	1	0	0
								}
							}
						}
					}
					JOINT left_clavicle
					{
						OFFSET	-43.2	22.4	-70.8
						CHANNELS 3  Xrotation Yrotation Zrotation
						JOINT left_shoulder
						{
							OFFSET	-93.9	-5.79999	48.7
							CHANNELS 3  Xrotation Yrotation Zrotation
							JOINT left_elbow
							{
								OFFSET	-291.4	-30.8	15.2
								CHANNELS 3  Xrotation Yrotation Zrotation
								JOINT left_lowarm_twist
								{
									OFFSET	-110.7	-3.89999	13.6
									CHANNELS 3  Xrotation Yrotation Zrotation
									JOINT left_hand
									{
										OFFSET	-110.7	-3.89999	13.6
										CHANNELS 3  Xrotation Yrotation Zrotation
										JOINT left_ee
										{
											OFFSET	-80.8	-5.10001	12.1
											CHANNELS 3  Xrotation Yrotation Zrotation
											End Site
											{
												OFFSET	1	0	0
											}
										}
									}
								}
							}
						}
					}
					JOINT right_clavicle
					{
						OFFSET	43.2	22.4	-70.8
						CHANNELS 3  Xrotation Yrotation Zrotation
						JOINT right_shoulder
						{
							OFFSET	93.9	-5.79999	48.7
							CHANNELS 3  Xrotation Yrotation Zrotation
							JOINT right_elbow
							{
								OFFSET	291.4	-30.8	15.2
								CHANNELS 3  Xrotation Yrotation Zrotation
								JOINT right_lowarm_twist
								{
									OFFSET	110.7	-3.89999	13.6
									CHANNELS 3  Xrotation Yrotation Zrotation
									JOINT right_hand
									{
										OFFSET	110.7	-3.89999	13.6
										CHANNELS 3  Xrotation Yrotation Zrotation
										JOINT right_ee
										{
											OFFSET	80.8	-5.10001	12.1
											CHANNELS 3  Xrotation Yrotation Zrotation
											End Site
											{
												OFFSET	1	0	0
											}
										}
									}
								}
							}
						}
					}
				}
			}
		}
	}
	JOINT left_hip
	{
		OFFSET	-82.8	-127.5	0.300001
		CHANNELS 3  Xrotation Yrotation Zrotation
		JOINT left_knee
		{
			OFFSET	-28.2	-396.7	2.2
			CHANNELS 3  Xrotation Yrotation Zrotation
			JOINT left_ankle
			{
				OFFSET	-11.7	-411.3	35.4
				CHANNELS 3  Xrotation Yrotation Zrotation
				JOINT left_toes
				{
					OFFSET	0	-60	-88.6
					CHANNELS 3  Xrotation Yrotation Zrotation
					JOINT left_foot_ee
					{
						OFFSET	-22.5	-16.5	-42.2
						CHANNELS 3  Xrotation Yrotation Zrotation
						End Site
						{
							OFFSET	1	0	0
						}
					}
				}
			}
		}
	}
	JOINT right_hip
	{
		OFFSET	82.8	-127.5	0.300001
		CHANNELS 3  Xrotation Yrotation Zrotation
		JOINT right_knee
		{
			OFFSET	28.2	-396.7	2.2
			CHANNELS 3  Xrotation Yrotation Zrotation
			JOINT right_ankle
			{
				OFFSET	11.7	-411.3	35.4
				CHANNELS 3  Xrotation Yrotation Zrotation
				JOINT right_toes
				{
					OFFSET	0	-60	-88.6
					CHANNELS 3  Xrotation Yrotation Zrotation
					JOINT right_foot_ee
					{
						OFFSET	22.5	-16.5	-42.2
						CHANNELS 3  Xrotation Yrotation Zrotation
						End Site
						{
							OFFSET	1	0	0
						}
					}
				}
			}
		}
	}
}
MOTION
Frames: 11
Frame Time: 0.02
2681.5481478 757.657 -1689.7002083 -108.451809509 86.2972076529 112.684242599 3.07043 -0.418852 -1.76858 3.07212 -0.305483 -1.79163 3.08117 -0.0198728 -1.81737 3.07669 -0.306597 -1.79144 -2.94564 -9.77382 5.3984 -2.58781 -21.9471 4.27162 -0.0 0.0 -0.0 9.46161 -13.7202 18.5548 -27.7541 20.312 70.079 0.884672 -23.6647 0.185343 13.5486 0.276974 -1.70453 0.292821 -7.31771 -1.12857 -0.0 0.0 -0.0 6.79194 -12.5722 -12.9 -12.1457 3.84217 -50.1639 1.38379 34.4284 -0.42875 0.922371 -0.0315847 0.113567 -2.71838 -0.530126 18.219 0.0 0.0 0.0 24.9197 -38.8204 -4.07222 -53.4723 -1.53784 7.76821 33.9807 0.990367 -4.3128 -0.438039 0.0 0.0 -0.0 0.0 -0.0 8.69423 -7.28918 -4.96543 -0.908856 -0.0363547 -0.134736 13.7306 -25.8226 2.02626 14.861 -0.0 -0.0 0.0 0.0 0.0 
2667.60078107 759.303 -1689.80358285 -145.429218025 84.7430037986 149.884413647 2.98776 -0.433011 -1.77127 2.98945 -0.319441 -1.79522 2.999 -0.0304848 -1.82316 2.9945 -0.317989 -1.79548 -2.67924 -10.223 4.60014 -2.33396 -22.1327 3.42105 -0.0 0.0 -0.0 10.0351 -13.1623 19.8399 -28.2622 18.5934 68.0575 0.898991 -24.0047 0.191129 13.6418 0.277475 -1.71643 0.369541 -3.14786 1.15281 -0.0 0.0 -0.0 7.40552 -10.7846 -14.0661 -12.3514 0.457167 -48.7461 1.48184 36.2786 -0.485491 -2.32576 0.0877308 -0.284008 -2.81509 0.288609 19.3077 0.0 0.0 0.0 26.5178 -38.0898 -3.13661 -51.8408 -1.38624 7.56771 33.8842 2.12172 -4.29714 -0.256447 0.0 0.0 -0.0 0.0 -0.0 8.51252 -7.91363 -5.20918 -0.852327 -0.0341558 -0.126339 10.8512 -25.8769 1.61723 16.2847 -0.0 -0.0 0.0 0.0 0.0 
2669.24986913 758.777 -1692.98530635 -145.717997639 81.7568932681 150.663223464 3.19592 -0.315738 -1.76123 3.19762 -0.203044 -1.77774 3.20332 0.0753428 -1.78771 3.19892 -0.207893 -1.77718 -1.99956 -11.3743 2.90786 -1.65333 -22.8498 1.61529 -0.0 0.0 -0.0 9.79517 -16.4265 19.1694 -27.3814 19.3749 71.1765 0.932522 -24.7939 0.20498 17.1159 0.282308 -2.16007 -0.545339 -3.07995 -4.97448 -0.0 0.0 -0.0 7.67375 -10.3094 -14.5725 -13.4915 2.53345 -46.8645 1.50971 36.789 -0.502078 -0.658905 0.0236818 -0.0808142 -3.16619 -0.512232 21.4099 0.0 0.0 0.0 31.2697 -37.2689 -1.87365 -46.7284 -0.949319 6.9132 33.5295 -0.484123 -4.27852 -0.0372624 0.0 0.0 -0.0 0.0 -0.0 8.09508 -7.81268 -6.90541 5.41661 0.260644 0.789825 11.1325 -27.9121 1.67812 15.8931 -0.0 -0.0 0.0 0.0 0.0 
2658.27529226 758.013 -1691.83169688 -156.489162459 79.2428537723 161.860299682 3.03709 -0.278953 -1.63883 3.03856 -0.17412 -1.65325 3.04314 0.0892441 -1.66 3.03933 -0.174005 -1.65326 -2.53043 -12.8096 1.34491 -2.21781 -24.2914 -0.325412 -0.0 0.0 -0.0 9.8893 -14.6872 19.4606 -25.1147 16.8881 68.599 0.869388 -23.2998 0.179253 16.1241 0.283672 -2.0334 -0.565166 4.20953 -1.95982 -0.0 0.0 -0.0 8.31226 -10.0457 -15.7435 -10.7339 -1.92621 -45.7374 1.58543 38.1424 -0.548143 -3.80652 0.149574 -0.46291 -3.07356 -1.23391 20.3777 0.0 0.0 0.0 32.8899 -37.0935 -1.32458 -46.8154 -0.956265 6.92466 31.5753 -0.441453 -4.07943 0.774433 -0.0 -0.0 -0.0 0.0 -0.0 9.61341 -12.7267 -7.01201 0.207695 0.00860815 0.03071 9.16041 -28.9333 1.3985 16.7834 -0.0 -0.0 0.0 0.0 0.0 
2650.45737463 750.989 -1699.42606442 -150.171010885 78.6518101012 155.680968479 3.12894 -0.328162 -1.52737 3.13021 -0.230318 -1.54515 3.13601 0.0141151 -1.56215 3.13268 -0.232744 -1.54478 -0.0581734 -12.9143 2.24451 0.463421 -24.8763 1.13358 -0.0 0.0 -0.0 7.883 -19.9369 14.7162 -25.707 15.434 79.6363 0.941489 -25.0033 0.208756 17.5512 0.281018 -2.21565 -1.8778 0.266142 -12.5203 -0.0 0.0 -0.0 7.41012 -4.82472 -14.3221 -15.771 1.2808 -46.1192 1.64687 39.2049 -0.586538 -1.33422 0.048917 -0.163357 -2.68576 1.31524 18.895 0.0 0.0 0.0 30.9044 -34.9112 -3.33027 -37.6914 -0.326467 5.67237 31.1225 -0.426526 -4.03217 -1.72635 0.0 0.0 -0.0 0.0 -0.0 10.4617 -11.4317 -7.8936 1.10244 0.0469643 0.162652 21.3573 -22.5134 3.00665 31.4527 -0.0 -0.0 0.0 0.0 0.0 
2648.02801661 750.989 -1697.78697544 -151.635234287 78.110817985 157.175801903 3.12894 -0.328162 -1.52737 3.13021 -0.230318 -1.54515 3.13601 0.0141151 -1.56215 3.13268 -0.232744 -1.54478 -0.0581734 -12.9143 2.24451 0.463421 -24.8763 1.13358 -0.0 0.0 -0.0 7.883 -19.9369 14.7162 -25.707 15.434 79.6363 0.941489 -25.0033 0.208756 17.5512 0.281018 -2.21565 -1.8778 0.266142 -12.5203 -0.0 0.0 -0.0 7.41012 -4.82472 -14.3221 -15.771 1.2808 -46.1192 1.64687 39.2049 -0.586538 -1.33422 0.048917 -0.163357 -2.68576 1.31524 18.895 0.0 0.0 0.0 30.9044 -34.9112 -3.33027 -37.6914 -0.326467 5.67237 31.1225 -0.426526 -4.03217 -1.72635 0.0 0.0 -0.0 0.0 -0.0 10.4617 -11.4317 -7.8936 1.10244 0.0469643 0.162652 21.3573 -22.5134 3.00665 31.4527 -0.0 -0.0 0.0 0.0 0.0 
2646.03471425 750.989 -1696.41328509 -152.746651126 77.6584747949 158.312526715 3.12894 -0.328162 -1.52737 3.13021 -0.230318 -1.54515 3.13601 0.0141151 -1.56215 3.13268 -0.232744 -1.54478 -0.0581734 -12.9143 2.24451 0.463421 -24.8763 1.13358 -0.0 0.0 -0.0 7.883 -19.9369 14.7162 -25.707 15.434 79.6363 0.941489 -25.0033 0.208756 17.5512 0.281018 -2.21565 -1.8778 0.266142 -12.5203 -0.0 0.0 -0.0 7.41012 -4.82472 -14.3221 -15.771 1.2808 -46.1192 1.64687 39.2049 -0.586538 -1.33422 0.048917 -0.163357 -2.68576 1.31524 18.895 0.0 0.0 0.0 30.9044 -34.9112 -3.33027 -37.6914 -0.326467 5.67237 31.1225 -0.426526 -4.03217 -1.72635 0.0 0.0 -0.0 0.0 -0.0 10.4617 -11.4317 -7.8936 1.10244 0.0469643 0.162652 21.3573 -22.5134 3.00665 31.4527 -0.0 -0.0 0.0 0.0 0.0 
2641.9161654 750.989 -1693.49050423 -154.817963245 76.7012154125 160.436707844 3.12894 -0.328162 -1.52737 3.13021 -0.230318 -1.54515 3.13601 0.0141151 -1.56215 3.13268 -0.232744 -1.54478 -0.0581734 -12.9143 2.24451 0.463421 -24.8763 1.13358 -0.0 0.0 -0.0 7.883 -19.9369 14.7162 -25.707 15.434 79.6363 0.941489 -25.0033 0.208756 17.5512 0.281018 -2.21565 -1.8778 0.266142 -12.5203 -0.0 0.0 -0.0 7.41012 -4.82472 -14.3221 -15.771 1.2808 -46.1192 1.64687 39.2049 -0.586538 -1.33422 0.048917 -0.163357 -2.68576 1.31524 18.895 0.0 0.0 0.0 30.9044 -34.9112 -3.33027 -37.6914 -0.326467 5.67237 31.1225 -0.426526 -4.03217 -1.72635 0.0 0.0 -0.0 0.0 -0.0 10.4617 -11.4317 -7.8936 1.10244 0.0469643 0.162652 21.3573 -22.5134 3.00665 31.4527 -0.0 -0.0 0.0 0.0 0.0 
2640.5490941 750.989 -1692.49456939 -155.445709617 76.3770443429 161.082183116 3.12894 -0.328162 -1.52737 3.13021 -0.230318 -1.54515 3.13601 0.0141151 -1.56215 3.13268 -0.232744 -1.54478 -0.0581734 -12.9143 2.24451 0.463421 -24.8763 1.13358 -0.0 0.0 -0.0 7.883 -19.9369 14.7162 -25.707 15.434 79.6363 0.941489 -25.0033 0.208756 17.5512 0.281018 -2.21565 -1.8778 0.266142 -12.5203 -0.0 0.0 -0.0 7.41012 -4.82472 -14.3221 -15.771 1.2808 -46.1192 1.64687 39.2049 -0.586538 -1.33422 0.048917 -0.163357 -2.68576 1.31524 18.895 0.0 0.0 0.0 30.9044 -34.9112 -3.33027 -37.6914 -0.326467 5.67237 31.1225 -0.426526 -4.03217 -1.72635 0.0 0.0 -0.0 0.0 -0.0 10.4617 -11.4317 -7.8936 1.10244 0.0469643 0.162652 21.3573 -22.5134 3.00665 31.4527 -0.0 -0.0 0.0 0.0 0.0 
2641.14498356 750.989 -1692.9302899 -155.175480897 76.5187297627 160.804215224 3.12894 -0.328162 -1.52737 3.13021 -0.230318 -1.54515 3.13601 0.0141151 -1.56215 3.13268 -0.232744 -1.54478 -0.0581734 -12.9143 2.24451 0.463421 -24.8763 1.13358 -0.0 0.0 -0.0 7.883 -19.9369 14.7162 -25.707 15.434 79.6363 0.941489 -25.0033 0.208756 17.5512 0.281018 -2.21565 -1.8778 0.266142 -12.5203 -0.0 0.0 -0.0 7.41012 -4.82472 -14.3221 -15.771 1.2808 -46.1192 1.64687 39.2049 -0.586538 -1.33422 0.048917 -0.163357 -2.68576 1.31524 18.895 0.0 0.0 0.0 30.9044 -34.9112 -3.33027 -37.6914 -0.326467 5.67237 31.1225 -0.426526 -4.03217 -1.72635 0.0 0.0 -0.0 0.0 -0.0 10.4617 -11.4317 -7.8936 1.10244 0.0469643 0.162652 21.3573 -22.5134 3.00665 31.4527 -0.0 -0.0 0.0 0.0 0.0 
2639.96219156 750.989 -1692.06298005 -155.706877088 76.2369222435 161.350990411 3.12894 -0.328162 -1.52737 3.13021 -0.230318 -1.54515 3.13601 0.0141151 -1.56215 3.13268 -0.232744 -1.54478 -0.0581734 -12.9143 2.24451 0.463421 -24.8763 1.13358 -0.0 0.0 -0.0 7.883 -19.9369 14.7162 -25.707 15.434 79.6363 0.941489 -25.0033 0.208756 17.5512 0.281018 -2.21565 -1.8778 0.266142 -12.5203 -0.0 0.0 -0.0 7.41012 -4.82472 -14.3221 -15.771 1.2808 -46.1192 1.64687 39.2049 -0.586538 -1.33422 0.048917 -0.163357 -2.68576 1.31524 18.895 0.0 0.0 0.0 30.9044 -34.9112 -3.33027 -37.6914 -0.326467 5.67237 31.1225 -0.426526 -4.03217 -1.72635 0.0 0.0 -0.0 0.0 -0.0 10.4617 -11.4317 -7.8936 1.10244 0.0469643 0.162652 21.3573 -22.5134 3.00665 31.4527 -0.0 -0.0 0.0 0.0 0.0 
